<svg width="56" height="49" viewBox="0 0 56 49" fill="none" xmlns="http://www.w3.org/2000/svg">
<g clip-path="url(#clip0_207_658)">
<path fill-rule="evenodd" clip-rule="evenodd" d="M54.8091 11.501L51.4327 6.3073C51.3121 6.16031 51.1915 6.06231 51.0106 6.01331C50.7694 5.96432 50.5885 5.96432 50.4077 6.01331L16.3415 20.5165L16.0401 20.4185C15.2563 20.0756 14.3518 19.9286 13.5077 19.9286C10.3724 19.9286 7.84009 21.9865 7.84009 24.5343V43.5943C7.84009 43.8883 8.14156 44.1821 8.56361 44.1821H18.4518C18.8739 44.1821 19.1754 43.9373 19.1754 43.5943V27.3272L19.4768 27.1802L54.4474 12.334C54.8091 12.138 54.9902 11.795 54.8091 11.501ZM17.7283 43.0063H9.28715V24.5343C9.28715 22.6234 11.1563 21.1045 13.5077 21.1045C15.8592 21.1045 17.7283 22.6234 17.7283 24.5343V43.0063ZM21.5268 24.9753L19.1754 25.9552V24.5343C19.1754 23.5544 18.8136 22.5744 18.0298 21.7905L17.6077 21.3495L21.6474 19.6346L21.5268 24.9753ZM27.9783 22.2314L23.0342 24.3383L23.2754 18.9486L28.2195 16.8417L27.9783 22.2314ZM34.8518 19.3406L29.4253 21.6435L29.6665 16.2537L35.093 13.9509L34.8518 19.3406ZM41.7253 16.4008L36.3592 18.7036L36.54 13.3139L41.9665 11.011L41.7253 16.4008ZM48.6591 13.4609L43.2327 15.7638L43.4738 10.3741L48.84 8.02221L48.6591 13.4609ZM50.1665 12.8239L50.4077 7.28725L53.1812 11.55L50.1665 12.8239Z" fill="#003863"/>
<path d="M13.5076 26.7882C14.2312 26.7882 14.7738 26.3472 14.7738 25.7592C14.7738 25.1713 14.2312 24.7303 13.5076 24.7303C12.7841 24.7303 12.2415 25.1713 12.2415 25.7592C12.2415 26.2982 12.8444 26.7882 13.5076 26.7882Z" fill="#003863"/>
</g>
<rect width="56" height="49" fill="#274769" fill-opacity="0.1"/>
<defs>
<clipPath id="clip0_207_658">
<rect width="47.04" height="38.2439" fill="white" transform="translate(7.84009 5.97561)"/>
</clipPath>
</defs>
</svg>
