<svg width="35" height="36" viewBox="0 0 35 36" fill="none" xmlns="http://www.w3.org/2000/svg">
<path d="M29.2396 16.5H5.76042C4.99527 16.5 4.375 17.138 4.375 17.925V18.075C4.375 18.862 4.99527 19.5 5.76042 19.5H29.2396C30.0047 19.5 30.625 18.862 30.625 18.075V17.925C30.625 17.138 30.0047 16.5 29.2396 16.5Z" fill="#F9DE49"/>
<path d="M29.2396 24H5.76042C4.99527 24 4.375 24.638 4.375 25.425V25.575C4.375 26.362 4.99527 27 5.76042 27H29.2396C30.0047 27 30.625 26.362 30.625 25.575V25.425C30.625 24.638 30.0047 24 29.2396 24Z" fill="#F9DE49"/>
<path d="M29.2396 9H5.76042C4.99527 9 4.375 9.63799 4.375 10.425V10.575C4.375 11.362 4.99527 12 5.76042 12H29.2396C30.0047 12 30.625 11.362 30.625 10.575V10.425C30.625 9.63799 30.0047 9 29.2396 9Z" fill="#F9DE49"/>
</svg>
