<svg width="100" height="100" viewBox="0 0 100 100" fill="none" xmlns="http://www.w3.org/2000/svg">
<path fill-rule="evenodd" clip-rule="evenodd" d="M53.75 6.25C63.75 6.875 73.125 11.875 80 18.75C88.125 27.5 92.5 38.125 92.5 50.625C92.5 60.625 88.75 70 82.5 78.125C76.25 85.625 67.5 91.25 57.5 93.125C47.5 95 37.5 93.75 28.75 88.75C20 83.75 13.125 76.25 9.37501 66.875C5.62501 57.5 5.00001 46.875 8.12501 37.5C11.25 27.5 16.875 19.375 25.625 13.75C33.75 8.125 43.75 5.625 53.75 6.25ZM56.875 86.875C65 85 72.5 80.625 78.125 73.75C83.125 66.875 86.25 58.75 85.625 50C85.625 40 81.875 30 75 23.125C68.75 16.875 61.25 13.125 52.5 12.5C44.375 11.875 35.625 13.75 28.75 18.75C21.875 23.75 16.875 30.625 14.375 39.375C11.875 47.5 11.875 56.25 15.625 64.375C19.375 72.5 25 78.75 32.5 83.125C40 87.5 48.75 88.75 56.875 86.875Z" fill="white"/>
<path fill-rule="evenodd" clip-rule="evenodd" d="M37.5 31.2499L42.3563 28.6499L70.4813 47.3999V52.5999L42.3563 71.3499L37.5 68.7499V31.2499ZM43.75 37.0874V62.9124L63.1188 49.9999L43.75 37.0874Z" fill="white"/>
</svg>
